<svg xmlns="http://www.w3.org/2000/svg" width="81" height="81" viewBox="0 0 81 81" fill="none">
  <mask id="mask0_306_266" style="mask-type:alpha" maskUnits="userSpaceOnUse" x="0" y="0" width="81" height="81">
    <rect x="1.17847" y="0.899994" width="79" height="79" rx="18.7" fill="#6A5AE0" stroke="#4A3780"/>
  </mask>
  <g mask="url(#mask0_306_266)">
    <path d="M82.7516 58.198L82.7516 58.1972C82.7676 48.4844 79.3601 39.0712 73.1181 31.5869L73.0254 31.4758L73.0252 31.4739C72.0539 30.3156 71.0208 29.2101 69.9304 28.162C69.9453 28.3411 69.9596 28.5209 69.9729 28.7017C69.9956 28.9299 70.007 29.1561 70.0177 29.3684L70.0181 29.3748L70.0187 29.3873L70.0187 29.3999L70.0187 29.4143C70.0845 30.3107 70.1284 31.2058 70.1614 32.1091C70.1727 32.3791 70.1728 32.6368 70.1728 32.8933C70.1948 33.4027 70.1948 33.9103 70.1948 34.4159L70.1948 34.4216C70.1948 35.4324 70.1726 36.4432 70.1284 37.454C70.1175 37.7671 70.1063 38.0792 70.0838 38.393L70.0811 38.4469C70.0601 38.8635 70.0383 39.2969 70.0062 39.7111L69.9995 39.7981C69.969 40.1923 69.9372 40.602 69.8959 41.0031C69.8855 41.1585 69.8738 41.3313 69.8507 41.5069C69.795 42.134 69.7176 42.7597 69.6414 43.3753L69.6413 43.376C69.5966 43.796 69.541 44.216 69.4742 44.6358C69.4635 44.7154 69.4528 44.7924 69.4423 44.8681L69.4417 44.8722C69.4307 44.9515 69.4199 45.0295 69.409 45.1101L69.4075 45.1213L69.4074 45.1213L69.2423 46.1693L69.2419 46.172C68.9872 47.7321 68.688 49.2713 68.3332 50.8004L68.3326 50.8028L68.0685 51.9163L68.0682 51.9176C68.0131 52.147 67.9569 52.3704 67.8893 52.6062C67.8155 52.9073 67.7341 53.2018 67.6537 53.4927C67.6365 53.5548 67.6194 53.6168 67.6024 53.6786C67.6022 53.6791 67.6021 53.6796 67.602 53.6801L67.1199 53.5475C66.7347 54.9776 66.2946 56.3859 65.8104 57.7832L82.7516 58.198ZM82.7516 58.198C82.7513 69.2832 78.3124 79.9151 70.4101 87.7548C62.5076 95.5946 51.789 99.9997 40.6115 100C40.0348 100 39.469 99.9892 38.892 99.9676C36.2557 99.8608 33.6361 99.5111 31.0669 98.9237C31.2396 98.8318 31.4123 98.7385 31.5851 98.6432C31.6191 98.6286 31.6444 98.6135 31.6524 98.6088L31.6528 98.6086C31.6544 98.6076 31.6558 98.6068 31.6571 98.606L31.7179 98.5758L31.7354 98.5584C32.321 98.2412 32.8989 97.9221 33.4678 97.592L33.4679 97.5921L33.4774 97.5863C33.6062 97.5076 33.7368 97.4378 33.8816 97.3604L33.8918 97.3549L33.9018 97.349L33.9055 97.3468C34.4476 97.0241 34.9989 96.696 35.5407 96.3455C35.7055 96.2561 35.8653 96.1579 36.0194 96.0513C36.4419 95.7971 36.8618 95.5229 37.2663 95.2518C37.5539 95.0652 37.8524 94.8678 38.1291 94.6811L38.1303 94.6803C38.5496 94.3957 38.9587 94.1105 39.3684 93.8141C39.6471 93.6258 39.9041 93.4375 40.1699 93.2292C40.5279 92.9842 40.873 92.7193 41.2055 92.4639C41.5195 92.241 41.8208 92.0085 42.1191 91.7675C42.5385 91.4498 42.9472 91.1211 43.3559 90.771C43.536 90.6364 43.7153 90.4916 43.8938 90.3369C44.3375 89.9736 44.7689 89.6005 45.1982 89.2182C45.4241 89.0262 45.6606 88.8251 45.8984 88.601C46.1522 88.3817 46.3958 88.162 46.6395 87.9314C47.1031 87.5151 47.5546 87.0783 47.9984 86.6488C48.0686 86.5902 48.1341 86.5257 48.1941 86.4559C48.633 86.0412 49.0592 85.6074 49.471 85.1775C49.7744 84.8871 50.0533 84.5883 50.3164 84.2949C50.6409 83.9724 50.942 83.6404 51.2333 83.3193L51.2338 83.3188C51.4128 83.1299 51.5816 82.9403 51.7399 82.7499C52.1378 82.311 52.5241 81.8622 52.9054 81.419L52.907 81.4171L82.7516 58.198ZM66.2039 58.1761C66.2305 58.0987 66.2568 58.0221 66.283 57.9465L52.9077 81.4164C53.1075 81.1851 53.3077 80.9425 53.4977 80.699C53.7813 80.3741 54.0597 80.0428 54.3186 79.6974C54.5849 79.3776 54.839 79.0488 55.0806 78.7222C55.3158 78.4328 55.5383 78.1347 55.745 77.8542C56.0337 77.4796 56.313 77.1027 56.5823 76.7131C56.6828 76.5678 56.796 76.4094 56.9125 76.2464C57.0741 76.0204 57.2421 75.7854 57.3918 75.5631C57.5276 75.3847 57.6536 75.1991 57.7693 75.0071C58.1439 74.4601 58.5069 73.9034 58.8582 73.3481C59.3126 72.6552 59.745 71.9513 60.1554 71.2364C60.3446 70.927 60.5223 70.6185 60.6962 70.3166L60.6977 70.314L60.6985 70.3125C62.1348 67.7996 63.4147 65.2016 64.5309 62.5335C64.6967 62.1604 64.8524 61.7855 64.9976 61.3986C65.177 60.9859 65.3334 60.5646 65.4844 60.1579L65.4854 60.1554C65.6174 59.8169 65.7507 59.4644 65.8737 59.1099C65.9895 58.8001 66.0987 58.4823 66.2039 58.1761Z" fill="#FEF5D3" stroke="#4A3780"/>
    <path d="M69.1518 34.2267L69.1518 34.2265C69.1518 32.5451 69.0972 30.887 68.9772 29.2409L68.977 29.2372C68.9265 28.4656 68.8669 27.7054 68.7896 26.9474C61.0626 20.018 51.0154 16.1857 40.5985 16.2L40.5978 16.2L29.0203 16.2C29.143 16.546 29.2626 16.8937 29.3791 17.2415L29.5223 17.2415L29.5223 17.6604C31.9419 25.0215 33.1737 32.7164 33.1719 40.4599M69.1518 34.2267L32.6719 40.4602M69.1518 34.2267C69.1577 47.1946 65.6333 59.9231 58.9514 71.065C52.2695 82.207 42.6784 91.3481 31.193 97.5207L31.1908 97.5219L69.1518 34.2267ZM33.1719 40.4599C33.1719 40.46 33.1719 40.4602 33.1719 40.4603L32.6719 40.4602M33.1719 40.4599C33.1719 40.4597 33.1719 40.4596 33.1719 40.4594L32.6719 40.4602M33.1719 40.4599C33.2001 58.3973 26.5463 75.7087 14.495 89.0633M32.6719 40.4602C32.7001 58.3209 26.0571 75.557 14.0279 88.8343L14.0171 88.8343M14.495 89.0633L14.495 88.8671C14.495 89.0273 14.4168 89.1311 14.3999 89.1534C14.3971 89.157 14.3943 89.1605 14.3916 89.1638C14.3825 89.175 14.3741 89.1842 14.3694 89.1891M14.495 89.0633L14.495 89.0736L14.3942 89.1748M14.495 89.0633C14.4628 89.0989 14.4307 89.1345 14.3985 89.17L14.3942 89.1748M14.3694 89.1891L14.0496 88.8671L14.0279 88.8453L14.0171 88.8343M14.3694 89.1891C14.3668 89.1917 14.3656 89.1929 14.3656 89.193C14.3655 89.1931 14.367 89.1916 14.3694 89.1891ZM14.0171 88.8343L14.0171 88.8671L14.0171 88.8891L14.0171 88.9077L13.9841 88.878M14.0171 88.8343L14.0167 88.8347C14.0058 88.8455 13.995 88.8563 13.995 88.8671M13.9841 88.878L13.995 88.8671M13.9841 88.878C13.7225 89.1683 13.4609 89.4533 13.1956 89.7367C13.3226 89.845 13.4503 89.9525 13.5786 90.0592M13.9841 88.878L14.0171 88.9108L14.0171 89.3343L14.0279 89.3343L14.2457 89.3343M13.995 88.8671L29.6489 98.9M13.995 88.8671L14.2457 89.3343M13.5786 90.0592C13.4648 90.1808 13.3503 90.3022 13.2348 90.4236C15.1606 92.0278 17.2248 93.4615 19.4036 94.7078C22.6159 96.5511 26.0614 97.961 29.6489 98.9M13.5786 90.0592C13.8029 89.8194 14.0245 89.5786 14.2457 89.3343M13.5786 90.0592L14.2457 89.3343M29.6489 98.9L29.7755 98.4163C29.7138 98.4001 29.6522 98.3839 29.5907 98.3674C29.5337 98.3968 29.4768 98.4262 29.4197 98.4556L29.6489 98.9ZM31.0624 97.5989L31.0205 97.6409L31.0096 97.6518L31.3638 98.0048L31.3389 97.9582L31.2642 97.8185L31.0624 97.5989ZM31.0624 97.5989C31.0744 97.5925 31.0863 97.5861 31.0983 97.5797L31.0624 97.5989ZM14.2457 89.3343L14.2496 89.3343L14.3942 89.1748M14.2457 89.3343C14.2795 89.297 14.3133 89.2595 14.3471 89.222L14.3492 89.2199L14.3942 89.1748" fill="#4A3780" stroke="#4A3780"/>
    <path d="M32.146 42.5318L32.1461 42.5283C32.1677 41.8129 32.1786 41.0865 32.1786 40.36C32.1786 38.7447 32.1244 37.1404 32.0161 35.5472L32.146 42.5318ZM32.146 42.5318C32.1357 42.9751 32.1155 43.4091 32.0946 43.859L32.0919 43.9176C32.0052 45.7817 31.8428 47.6349 31.6046 49.4771L31.6046 49.4771L31.6037 49.4849C31.5501 49.9568 31.4858 50.4183 31.4107 50.8802L31.4095 50.8876L31.4085 50.8951C31.3389 51.422 31.2509 51.9404 31.1596 52.4776C31.1526 52.5188 31.1456 52.5602 31.1385 52.6017L31.1378 52.6065C31.0517 53.1448 30.9548 53.6733 30.8467 54.2141L30.8451 54.2219L30.8438 54.2299C30.8348 54.2838 30.8233 54.3394 30.8093 54.4066L30.8086 54.4104C30.7959 54.4714 30.781 54.5427 30.7687 54.6158M32.146 42.5318L30.7687 54.6158M30.7687 54.6158C30.6829 55.0555 30.5862 55.5072 30.4888 55.9512C29.9801 58.2614 29.3548 60.5443 28.6153 62.7911L28.6153 62.7911L28.6136 62.7965C28.4746 63.2352 28.3243 63.6651 28.1724 64.0887L28.1643 64.1114L28.1584 64.1347C28.1527 64.1569 28.1451 64.1782 28.1357 64.1982L28.1241 64.223L28.1153 64.2489C27.9643 64.6916 27.8133 65.1127 27.6513 65.545L27.6481 65.5536L27.6451 65.5624C27.6058 65.6806 27.5556 65.8114 27.5001 65.9559L27.5001 65.9559L27.4982 65.961C27.3265 66.4227 27.1438 66.8747 26.9579 67.3343L26.9565 67.3378C26.7515 67.8564 26.5361 68.3736 26.3105 68.879L26.3105 68.879L26.3075 68.8861C26.0809 69.4153 25.8432 69.9452 25.6035 70.4796C25.4543 70.7995 25.3017 71.1168 25.1491 71.4343C25.0692 71.6004 24.9892 71.7666 24.9098 71.9332C24.6604 72.4434 24.4128 72.9389 24.1554 73.422C24.0868 73.5507 24.0187 73.6793 23.9507 73.8076C23.7564 74.1743 23.5632 74.539 23.3633 74.8992C23.0904 75.3908 22.8189 75.88 22.5476 76.3579C22.2788 76.8315 21.9875 77.3176 21.6945 77.7954C21.4018 78.2729 21.1097 78.7384 20.8073 79.2033L20.8051 79.2067C20.2091 80.1395 19.592 81.0606 18.9537 81.9594C18.3162 82.857 17.6452 83.7455 16.9705 84.6278C15.9894 85.8709 14.9749 87.0837 13.9269 88.2664L13.9242 88.2664L13.8772 88.319L13.816 88.3802L13.8088 88.3875C13.8057 88.3907 13.7992 88.3974 13.7916 88.4059C13.7825 88.416 13.7632 88.4379 13.7424 88.4698C13.4915 88.7499 13.2357 89.03 12.9784 89.3066C11.4261 87.9402 9.97664 86.4606 8.642 84.8799C8.61719 84.8429 8.58901 84.8086 8.55793 84.7773C2.23088 77.2566 -1.23358 67.7371 -1.2214 57.9044L-1.2214 57.9037L-1.2214 16.1L27.9983 16.1C28.1929 16.6404 28.3778 17.1795 28.5474 17.7246L28.5711 17.8008C28.5747 17.8163 28.579 17.8318 28.584 17.8473L28.584 17.8474L28.5869 17.8559C28.5953 17.88 28.6053 17.9032 28.6168 17.9256L28.6932 18.1415L28.6965 18.1415L28.7759 18.3998L28.7759 18.3998L28.7777 18.4054C29.1456 19.5536 29.481 20.7123 29.7839 21.8924L29.7838 21.8925L29.7859 21.9002C30.0013 22.6871 30.1958 23.498 30.3804 24.3131L30.3805 24.3137C30.7159 25.7865 31.0082 27.2925 31.2574 28.8207C31.2781 28.9617 31.2992 29.0943 31.3197 29.2232C31.3564 29.454 31.3912 29.6726 31.4185 29.9052L31.4183 29.9052L31.4202 29.9183C31.5506 30.8207 31.6697 31.7203 31.7669 32.6293L31.7668 32.6293L31.7682 32.64C31.8104 32.967 31.8421 33.3057 31.8633 33.6345L31.8639 33.6441L31.8649 33.6537C31.9274 34.2578 31.9697 34.8732 32.0122 35.4891L32.0161 35.5467L30.7687 54.6158ZM27.4215 67.5217C27.6069 67.0632 27.7923 66.6047 27.9668 66.1352L27.9669 66.1351C28.0214 65.9932 28.0759 65.8514 28.1195 65.7204C28.2831 65.2837 28.4358 64.8579 28.5885 64.4103C28.6115 64.3612 28.6298 64.31 28.6431 64.2575C28.7958 63.8317 28.9484 63.395 29.0902 62.9474C29.8351 60.6846 30.4648 58.3854 30.9771 56.0588L27.4215 67.5217ZM27.4215 67.5217C27.2143 68.0457 26.9961 68.5698 26.7671 69.0829L27.4215 67.5217ZM29.0248 17.576C28.8176 16.9101 28.5885 16.255 28.3486 15.6L-1.2214 15.6L29.0248 17.576ZM29.0248 17.576L29.0357 17.5869M29.0248 17.576L29.0466 17.6415M29.0357 17.5869C29.0367 17.6055 29.0404 17.6239 29.0466 17.6415M29.0357 17.5869L28.9812 17.6415M29.0357 17.5869L29.0127 17.5881L28.9804 17.5898L28.5364 17.6132C28.5384 17.6505 28.5433 17.6874 28.5511 17.7234C28.5558 17.7449 28.5615 17.7662 28.5681 17.787L28.9812 17.6415M29.0466 17.6415L28.9812 17.6415M29.0466 17.6415L28.9812 17.6415M29.2538 18.2528C29.6247 19.4101 29.9628 20.5782 30.2682 21.7682C30.4863 22.5651 30.6826 23.3839 30.868 24.2026L29.2538 18.2528Z" fill="#DBECF6" stroke="#4A3780"/>
  </g>
  <rect x="1.17847" y="0.899994" width="79" height="71" rx="18.7" fill="white" stroke="#4A3780"/>
</svg>